<svg xmlns="http://www.w3.org/2000/svg" viewBox="0 0 297 210" role="img" aria-label="Favicon G">
  <path style="fill:#333333" d="m 204.3893,87.499002 a 55,55 0 0 1 2.91765,17.500738 55,55 0 0 1 -55.00026,55.00027 55,55 0 0 1 -13.56248,-1.70016 l -10.77609,33.33492 a 90,90 0 0 0 24.33857,3.36517 90,90 0 0 0 90.00019,-90.0002 90,90 0 0 0 -1.7787,-17.500738 z"></path>
  <path style="fill:#fdb515;fill-opacity:1" d="m 122.77206,20.050923 a 90,90 0 0 0 -38.66741,26.42216 h 12.862781 v 6.903454 H 78.703946 a 90,90 0 0 0 -8.115267,14.120586 h 9.321912 v 5.338692 H 68.338688 a 90,90 0 0 0 -4.468462,15.671911 h 12.388908 v 6.903972 H 62.870287 a 90,90 0 0 0 -0.563273,9.588042 90,90 0 0 0 1.454692,15.64091 h 9.390124 v 6.90346 h -7.891508 a 90,90 0 0 0 1.899109,6.37222 h 13.893726 v 5.33869 H 69.173779 a 90,90 0 0 0 6.742741,13.20591 h 5.136637 v 5.10046 h -1.718241 a 90,90 0 0 0 5.444628,6.90191 h 20.847306 v 6.90345 H 91.579129 a 90,90 0 0 0 31.173291,18.63297 L 135.5444,157.37123 A 55,55 0 0 1 97.306945,104.99974 55,55 0 0 1 135.55319,52.650484 Z"></path>
  <path style="fill:#333333" d="m 152.30669,15.000068 a 90,90 0 0 0 -24.32462,3.408578 l 10.78178,33.353003 a 55,55 0 0 1 13.54284,-1.76165 55,55 0 0 1 40.15052,17.498674 h 41.61193 A 90,90 0 0 0 152.30669,15.000068 Z"></path>
  <path style="fill:#333333" d="m 152.30669,69.999812 a 35,35 0 0 0 -34.99993,34.999928 35,35 0 0 0 34.99993,35.00045 35,35 0 0 0 35.00045,-35.00045 35,35 0 0 0 -35.00045,-34.999928 z m 0,22.500436 a 12.5,12.5 0 0 1 12.50001,12.499492 12.5,12.5 0 0 1 -12.50001,12.50002 12.5,12.5 0 0 1 -12.4995,-12.50002 12.5,12.5 0 0 1 12.4995,-12.499492 z"></path>
  <rect style="fill:#333333" width="33.32806" height="34.999935" x="179.8448" y="87.500038"></rect>
  <rect style="fill:#fdb515;fill-opacity:1" width="26.443726" height="6.9036942" x="70.523682" y="39.569328"></rect>
  <rect style="fill:#fdb515;fill-opacity:1" width="26.443726" height="6.9036942" x="56.231716" y="81.604088"></rect>
  <rect style="fill:#fdb515;fill-opacity:1" width="13.028493" height="6.9036946" x="-53.595989" y="90.418526" transform="rotate(-58.73397)"></rect>
  <rect style="fill:#fdb515;fill-opacity:1" width="26.443726" height="6.9036942" x="53.909847" y="60.594978"></rect>
  <rect style="fill:#fdb515;fill-opacity:1" width="9.8432217" height="6.9036946" x="45.527596" y="89.419815"></rect>
  <rect style="fill:#fdb515;fill-opacity:1" width="29.141638" height="6.9036937" x="41.230442" y="110.42892"></rect>
  <rect style="fill:#fdb515;fill-opacity:1" width="29.141638" height="9.0015593" x="51.911591" y="103.52522"></rect>
  <rect style="fill:#fdb515;fill-opacity:1" width="29.141638" height="9.0015593" x="87.091171" y="30.794785"></rect>
  <rect style="fill:#fdb515;fill-opacity:1" width="29.141638" height="6.9036937" x="54.882763" y="139.25374"></rect>
  <rect style="fill:#fdb515;fill-opacity:1" width="33.87159" height="6.9036937" x="60.882763" y="157.55939"></rect>
  <rect style="fill:#fdb515;fill-opacity:1" width="33.87159" height="6.9036937" x="77.818565" y="171.36679"></rect>
  <rect style="fill:#fdb515;fill-opacity:1" width="15.195807" height="6.9036937" x="136.16125" y="31.373606" transform="rotate(55.226421)"></rect>
  <rect style="fill:#fdb515;fill-opacity:1" width="8.9311056" height="6.9036946" x="74.010696" y="-22.840714" transform="rotate(44.260352)"></rect>
  <circle style="fill:#333333" cx="64.127434" cy="35.295563" r="6"></circle>
  <circle style="fill:#333333" cx="53.909847" cy="64.046822" r="6"></circle>
  <circle style="fill:#333333" cx="40.973648" cy="92.871666" r="6"></circle>
  <circle style="fill:#333333" cx="50.549416" cy="133.91641" r="6"></circle>
  <circle style="fill:#333333" cx="60.882763" cy="161.01123" r="6"></circle>
  <circle style="fill:#ffffff" cx="64.127434" cy="35.295563" r="2"></circle>
  <circle style="fill:#ffffff" cx="53.909847" cy="64.046822" r="2"></circle>
  <circle style="fill:#ffffff" cx="40.973648" cy="92.871666" r="2"></circle>
  <circle style="fill:#ffffff" cx="50.549416" cy="133.91641" r="2"></circle>
  <circle style="fill:#ffffff" cx="60.882763" cy="161.01123" r="2"></circle>
</svg>
